<?xml version="1.0" encoding="utf-8"?>
<!-- Generator: Adobe Illustrator 23.0.1, SVG Export Plug-In . SVG Version: 6.00 Build 0)  -->
<svg version="1.1" xmlns="http://www.w3.org/2000/svg" xmlns:xlink="http://www.w3.org/1999/xlink" x="0px" y="0px"
	 viewBox="0 0 800 800" style="enable-background:new 0 0 800 800;" xml:space="preserve">
<style type="text/css">
	.st0{display:none;}
	.st1{display:inline;}
	.st2{fill:#FFFFFF;}
</style>
<g id="Layer_2" class="st0">
	<rect class="st1" width="800" height="800"/>
</g>
<g id="Layer_1" class="st0">
	<g>
		<path class="st2" d="M323.55,1059.82c-195.78,0-391.55-0.02-587.33,0.12c-4.63,0-5.67-1.04-5.67-5.67
			c0.12-391.55,0.12-783.1,0-1174.65c0-4.63,1.04-5.67,5.67-5.67c391.55,0.12,783.1,0.12,1174.65,0c4.63,0,5.67,1.04,5.67,5.67
			c-0.12,391.55-0.12,783.1,0,1174.65c0,4.63-1.04,5.68-5.67,5.67C715.1,1059.8,519.33,1059.82,323.55,1059.82z M540.99,695.72
			c11.82-0.15,23.23-1.28,34.55-3.81c68.08-15.23,114.53-55.34,138.1-121.04c10.11-28.18,11.7-57.49,7.35-87.11
			c-5.57-37.98-21.37-70.95-47.8-98.92c-22.15-23.44-48.98-39.14-79.22-49.6c-11.4-3.94-11.22-4.21-8.55-15.7
			c10.12-43.51,4.76-85.62-15.71-124.77c-28.28-54.09-73.52-87-133.59-98.86c-30.11-5.95-59.89-3.91-88.94,5.87
			c-26.94,9.08-50.33,24-70.48,44.18c-27.09,27.13-45.08,59.04-51.66,96.94c-4.41,25.41-3.35,50.83,1.64,76.11
			c1.62,8.21,0.84,9.99-6.61,12.77c-23.46,8.74-45.6,19.89-65.59,35.1c-21.34,16.23-38.21,36.19-49.43,60.58
			C90.39,459.35,85.08,492.99,87.9,527.9c3.32,41.1,17.41,77.67,46.51,107.62c19.33,19.89,42.17,34.4,67.8,45.14
			c60.06,25.17,116.23,15.84,170.09-17.57c4.41-2.74,4.6-5.19,1.21-9.13c-19.43-22.59-33.33-48.35-42.78-76.53
			c-1.58-4.71-3.39-4.04-6.45-1.52c-13.39,11.03-28.75,17.34-46.05,19.04c-55.96,5.48-106.53-42.78-90.65-105.85
			c9.72-38.6,42.45-63.65,82.31-64.11c26.46-0.3,48.93,9.37,66.18,30.08c13.56,16.28,18.19,35.68,19.77,56.09
			c2.21,28.49,6.5,56.45,20.26,82.05C411.47,659.02,467.44,691.6,540.99,695.72z"/>
		<path class="st2" d="M542.82,596.13c-45.35,1.51-81.79-30.74-87.31-74.13c-1.84-14.48-2.28-29.12-4.93-43.51
			c-9.65-52.35-37.27-92.84-81.12-122.49c-10.76-7.28-21.52-14.42-29.99-24.48c-30.7-36.44-24.09-93.29,14.19-121.71
			c32.44-24.09,72.73-24.43,104.32-0.89c38.27,28.51,44.81,83.99,14.83,120.69c-9.99,12.24-22.45,20.32-36.42,26.68
			c-4.35,1.98-5.94,3.99-2.28,8.19c19.84,22.76,34.31,48.64,44.58,76.97c2.52,6.95,2.73,7.01,8.61,2.64
			c23.13-17.17,48.85-22.38,76.55-15.21c25.02,6.48,42.79,22.63,53.47,45.85c18.41,40.03,5.54,83.91-31.25,107.85
			C571.97,591.75,556.3,596.45,542.82,596.13z"/>
	</g>
</g>
<g id="Layer_3">
	<path d="M720.99,483.45c-5.57-37.98-21.37-70.95-47.8-98.92c-22.15-23.44-48.98-39.14-79.22-49.6c-11.4-3.94-11.22-4.21-8.55-15.7
		c10.12-43.51,4.76-85.62-15.71-124.77c-28.28-54.09-73.52-87-133.59-98.86c-30.11-5.95-59.89-3.91-88.94,5.87
		c-26.94,9.08-50.33,24-70.48,44.18c-27.09,27.13-45.08,59.04-51.66,96.94c-4.41,25.41-3.35,50.83,1.64,76.11
		c1.62,8.21,0.84,9.99-6.61,12.77c-23.46,8.74-45.6,19.89-65.59,35.1c-21.34,16.23-38.21,36.19-49.43,60.58
		C90.39,459.04,85.08,492.69,87.9,527.6c3.32,41.1,17.41,77.67,46.51,107.62c19.33,19.89,42.17,34.4,67.8,45.14
		c60.06,25.17,116.23,15.84,170.09-17.57c4.41-2.74,4.6-5.19,1.21-9.13c-19.43-22.59-33.33-48.35-42.78-76.53
		c-1.58-4.71-3.39-4.04-6.45-1.52c-13.39,11.03-28.75,17.34-46.05,19.04c-55.96,5.48-106.53-42.78-90.65-105.85
		c9.72-38.6,42.45-63.65,82.31-64.11c26.46-0.3,48.93,9.37,66.18,30.08c13.56,16.28,18.19,35.68,19.77,56.09
		c2.21,28.49,6.5,56.45,20.26,82.05c35.38,65.81,91.35,98.39,164.9,102.51c11.82-0.14,23.23-1.27,34.55-3.81
		c68.08-15.23,114.53-55.34,138.1-121.04C723.74,542.38,725.33,513.07,720.99,483.45z M586.07,582.58
		c-14.1,9.17-29.77,13.87-43.25,13.55c-45.35,1.51-81.79-30.74-87.31-74.13c-1.84-14.48-2.28-29.12-4.93-43.51
		c-9.66-52.35-37.27-92.84-81.12-122.49c-10.76-7.28-21.52-14.42-29.99-24.48c-30.7-36.44-24.09-93.29,14.19-121.71
		c32.44-24.09,72.73-24.43,104.32-0.89c38.27,28.51,44.81,83.99,14.83,120.69c-9.99,12.24-22.45,20.32-36.42,26.68
		c-4.35,1.98-5.94,3.99-2.28,8.19c19.84,22.76,34.31,48.64,44.58,76.97c2.52,6.95,2.73,7.01,8.61,2.64
		c23.13-17.17,48.85-22.38,76.55-15.21c25.02,6.48,42.79,22.63,53.47,45.85C635.74,514.76,622.87,558.64,586.07,582.58z"/>
</g>
</svg>
